<?xml version="1.0" encoding="utf-8" ?>
<svg baseProfile="full" height="128.0" version="1.1" width="128.0" xmlns="http://www.w3.org/2000/svg" xmlns:ev="http://www.w3.org/2001/xml-events" xmlns:xlink="http://www.w3.org/1999/xlink"><defs /><rect fill="rgb(248,168,118)" fill-opacity="1.0" height="8.8" width="8.8" x="0.0" y="0.0" /><rect fill="rgb(185,123,85)" fill-opacity="1.0" height="8.8" width="8.8" x="0.0" y="8.0" /><rect fill="rgb(155,106,75)" fill-opacity="1.0" height="8.8" width="8.8" x="0.0" y="16.0" /><rect fill="rgb(252,170,119)" fill-opacity="1.0" height="8.8" width="8.8" x="0.0" y="24.0" /><rect fill="rgb(141,93,63)" fill-opacity="1.0" height="8.8" width="8.8" x="0.0" y="32.0" /><rect fill="rgb(115,91,76)" fill-opacity="1.0" height="8.8" width="8.8" x="0.0" y="40.0" /><rect fill="rgb(255,227,210)" fill-opacity="1.0" height="8.8" width="8.8" x="0.0" y="48.0" /><rect fill="rgb(254,247,242)" fill-opacity="1.0" height="8.8" width="8.8" x="0.0" y="56.0" /><rect fill="rgb(49,28,16)" fill-opacity="1.0" height="8.8" width="8.8" x="0.0" y="64.0" /><rect fill="rgb(127,71,41)" fill-opacity="1.0" height="8.8" width="8.8" x="0.0" y="72.0" /><rect fill="rgb(126,80,56)" fill-opacity="1.0" height="8.8" width="8.8" x="0.0" y="80.0" /><rect fill="rgb(200,175,161)" fill-opacity="1.0" height="8.8" width="8.8" x="0.0" y="88.0" /><rect fill="rgb(255,255,255)" fill-opacity="1.0" height="8.8" width="8.8" x="0.0" y="96.0" /><rect fill="rgb(150,150,150)" fill-opacity="1.0" height="8.8" width="8.8" x="0.0" y="104.0" /><rect fill="rgb(203,203,203)" fill-opacity="1.0" height="8.8" width="8.8" x="0.0" y="112.0" /><rect fill="rgb(172,113,77)" fill-opacity="1.0" height="8.8" width="8.8" x="0.0" y="120.0" /><rect fill="rgb(189,130,92)" fill-opacity="1.0" height="8.8" width="8.8" x="8.0" y="0.0" /><rect fill="rgb(230,158,112)" fill-opacity="1.0" height="8.8" width="8.8" x="8.0" y="8.0" /><rect fill="rgb(128,86,60)" fill-opacity="1.0" height="8.8" width="8.8" x="8.0" y="16.0" /><rect fill="rgb(65,43,29)" fill-opacity="1.0" height="8.8" width="8.8" x="8.0" y="24.0" /><rect fill="rgb(131,112,101)" fill-opacity="1.0" height="8.8" width="8.8" x="8.0" y="32.0" /><rect fill="rgb(70,60,54)" fill-opacity="1.0" height="8.8" width="8.8" x="8.0" y="40.0" /><rect fill="rgb(255,255,255)" fill-opacity="1.0" height="8.8" width="8.8" x="8.0" y="48.0" /><rect fill="rgb(248,248,248)" fill-opacity="1.0" height="8.8" width="8.8" x="8.0" y="56.0" /><rect fill="rgb(99,56,33)" fill-opacity="1.0" height="8.8" width="8.8" x="8.0" y="64.0" /><rect fill="rgb(255,143,83)" fill-opacity="1.0" height="8.8" width="8.8" x="8.0" y="72.0" /><rect fill="rgb(254,162,113)" fill-opacity="1.0" height="8.8" width="8.8" x="8.0" y="80.0" /><rect fill="rgb(254,162,113)" fill-opacity="1.0" height="8.8" width="8.8" x="8.0" y="88.0" /><rect fill="rgb(107,107,107)" fill-opacity="1.0" height="8.8" width="8.8" x="8.0" y="96.0" /><rect fill="rgb(150,150,150)" fill-opacity="1.0" height="8.8" width="8.8" x="8.0" y="104.0" /><rect fill="rgb(255,255,255)" fill-opacity="1.0" height="8.8" width="8.8" x="8.0" y="112.0" /><rect fill="rgb(179,162,152)" fill-opacity="1.0" height="8.8" width="8.8" x="8.0" y="120.0" /><rect fill="rgb(255,175,124)" fill-opacity="1.0" height="8.8" width="8.8" x="16.0" y="0.0" /><rect fill="rgb(255,175,124)" fill-opacity="1.0" height="8.8" width="8.8" x="16.0" y="8.0" /><rect fill="rgb(255,175,124)" fill-opacity="1.0" height="8.8" width="8.8" x="16.0" y="16.0" /><rect fill="rgb(255,175,124)" fill-opacity="1.0" height="8.8" width="8.8" x="16.0" y="24.0" /><rect fill="rgb(255,175,124)" fill-opacity="1.0" height="8.8" width="8.8" x="16.0" y="32.0" /><rect fill="rgb(136,94,66)" fill-opacity="1.0" height="8.8" width="8.8" x="16.0" y="40.0" /><rect fill="rgb(224,154,109)" fill-opacity="1.0" height="8.8" width="8.8" x="16.0" y="48.0" /><rect fill="rgb(123,85,60)" fill-opacity="1.0" height="8.8" width="8.8" x="16.0" y="56.0" /><rect fill="rgb(174,114,77)" fill-opacity="1.0" height="8.8" width="8.8" x="16.0" y="64.0" /><rect fill="rgb(132,74,43)" fill-opacity="1.0" height="8.8" width="8.8" x="16.0" y="72.0" /><rect fill="rgb(131,84,58)" fill-opacity="1.0" height="8.8" width="8.8" x="16.0" y="80.0" /><rect fill="rgb(246,203,180)" fill-opacity="1.0" height="8.8" width="8.8" x="16.0" y="88.0" /><rect fill="rgb(178,178,178)" fill-opacity="1.0" height="8.8" width="8.8" x="16.0" y="96.0" /><rect fill="rgb(255,255,255)" fill-opacity="1.0" height="8.8" width="8.8" x="16.0" y="104.0" /><rect fill="rgb(255,255,255)" fill-opacity="1.0" height="8.8" width="8.8" x="16.0" y="112.0" /><rect fill="rgb(254,254,254)" fill-opacity="1.0" height="8.8" width="8.8" x="16.0" y="120.0" /><rect fill="rgb(255,198,161)" fill-opacity="1.0" height="8.8" width="8.8" x="24.0" y="0.0" /><rect fill="rgb(255,175,124)" fill-opacity="1.0" height="8.8" width="8.8" x="24.0" y="8.0" /><rect fill="rgb(255,175,124)" fill-opacity="1.0" height="8.8" width="8.8" x="24.0" y="16.0" /><rect fill="rgb(255,175,124)" fill-opacity="1.0" height="8.8" width="8.8" x="24.0" y="24.0" /><rect fill="rgb(255,175,124)" fill-opacity="1.0" height="8.8" width="8.8" x="24.0" y="32.0" /><rect fill="rgb(255,175,124)" fill-opacity="1.0" height="8.8" width="8.8" x="24.0" y="40.0" /><rect fill="rgb(255,175,124)" fill-opacity="1.0" height="8.8" width="8.8" x="24.0" y="48.0" /><rect fill="rgb(255,175,124)" fill-opacity="1.0" height="8.8" width="8.8" x="24.0" y="56.0" /><rect fill="rgb(255,175,124)" fill-opacity="1.0" height="8.8" width="8.8" x="24.0" y="64.0" /><rect fill="rgb(255,175,124)" fill-opacity="1.0" height="8.8" width="8.8" x="24.0" y="72.0" /><rect fill="rgb(167,114,80)" fill-opacity="1.0" height="8.8" width="8.8" x="24.0" y="80.0" /><rect fill="rgb(185,185,185)" fill-opacity="1.0" height="8.8" width="8.8" x="24.0" y="88.0" /><rect fill="rgb(255,255,255)" fill-opacity="1.0" height="8.8" width="8.8" x="24.0" y="96.0" /><rect fill="rgb(255,255,255)" fill-opacity="1.0" height="8.8" width="8.8" x="24.0" y="104.0" /><rect fill="rgb(255,255,255)" fill-opacity="1.0" height="8.8" width="8.8" x="24.0" y="112.0" /><rect fill="rgb(255,255,255)" fill-opacity="1.0" height="8.8" width="8.8" x="24.0" y="120.0" /><rect fill="rgb(255,185,141)" fill-opacity="1.0" height="8.8" width="8.8" x="32.0" y="0.0" /><rect fill="rgb(255,175,124)" fill-opacity="1.0" height="8.8" width="8.8" x="32.0" y="8.0" /><rect fill="rgb(255,175,124)" fill-opacity="1.0" height="8.8" width="8.8" x="32.0" y="16.0" /><rect fill="rgb(255,175,124)" fill-opacity="1.0" height="8.8" width="8.8" x="32.0" y="24.0" /><rect fill="rgb(255,175,124)" fill-opacity="1.0" height="8.8" width="8.8" x="32.0" y="32.0" /><rect fill="rgb(255,175,124)" fill-opacity="1.0" height="8.8" width="8.8" x="32.0" y="40.0" /><rect fill="rgb(255,175,124)" fill-opacity="1.0" height="8.8" width="8.8" x="32.0" y="48.0" /><rect fill="rgb(255,175,124)" fill-opacity="1.0" height="8.8" width="8.8" x="32.0" y="56.0" /><rect fill="rgb(255,175,124)" fill-opacity="1.0" height="8.8" width="8.8" x="32.0" y="64.0" /><rect fill="rgb(253,172,121)" fill-opacity="1.0" height="8.8" width="8.8" x="32.0" y="72.0" /><rect fill="rgb(177,134,107)" fill-opacity="1.0" height="8.8" width="8.8" x="32.0" y="80.0" /><rect fill="rgb(177,177,177)" fill-opacity="1.0" height="8.8" width="8.8" x="32.0" y="88.0" /><rect fill="rgb(255,255,255)" fill-opacity="1.0" height="8.8" width="8.8" x="32.0" y="96.0" /><rect fill="rgb(148,120,116)" fill-opacity="1.0" height="8.8" width="8.8" x="32.0" y="104.0" /><rect fill="rgb(208,179,175)" fill-opacity="1.0" height="8.8" width="8.8" x="32.0" y="112.0" /><rect fill="rgb(255,255,255)" fill-opacity="1.0" height="8.8" width="8.8" x="32.0" y="120.0" /><rect fill="rgb(255,187,143)" fill-opacity="1.0" height="8.8" width="8.8" x="40.0" y="0.0" /><rect fill="rgb(255,175,124)" fill-opacity="1.0" height="8.8" width="8.8" x="40.0" y="8.0" /><rect fill="rgb(255,175,124)" fill-opacity="1.0" height="8.8" width="8.8" x="40.0" y="16.0" /><rect fill="rgb(255,175,124)" fill-opacity="1.0" height="8.8" width="8.8" x="40.0" y="24.0" /><rect fill="rgb(255,175,124)" fill-opacity="1.0" height="8.8" width="8.8" x="40.0" y="32.0" /><rect fill="rgb(255,175,124)" fill-opacity="1.0" height="8.8" width="8.8" x="40.0" y="40.0" /><rect fill="rgb(255,175,124)" fill-opacity="1.0" height="8.8" width="8.8" x="40.0" y="48.0" /><rect fill="rgb(255,175,124)" fill-opacity="1.0" height="8.8" width="8.8" x="40.0" y="56.0" /><rect fill="rgb(255,175,124)" fill-opacity="1.0" height="8.8" width="8.8" x="40.0" y="64.0" /><rect fill="rgb(189,127,89)" fill-opacity="1.0" height="8.8" width="8.8" x="40.0" y="72.0" /><rect fill="rgb(110,110,110)" fill-opacity="1.0" height="8.8" width="8.8" x="40.0" y="80.0" /><rect fill="rgb(255,255,255)" fill-opacity="1.0" height="8.8" width="8.8" x="40.0" y="88.0" /><rect fill="rgb(255,255,255)" fill-opacity="1.0" height="8.8" width="8.8" x="40.0" y="96.0" /><rect fill="rgb(208,86,69)" fill-opacity="1.0" height="8.8" width="8.8" x="40.0" y="104.0" /><rect fill="rgb(255,191,183)" fill-opacity="1.0" height="8.8" width="8.8" x="40.0" y="112.0" /><rect fill="rgb(255,255,255)" fill-opacity="1.0" height="8.8" width="8.8" x="40.0" y="120.0" /><rect fill="rgb(255,175,124)" fill-opacity="1.0" height="8.8" width="8.8" x="48.0" y="0.0" /><rect fill="rgb(255,175,124)" fill-opacity="1.0" height="8.8" width="8.8" x="48.0" y="8.0" /><rect fill="rgb(255,175,124)" fill-opacity="1.0" height="8.8" width="8.8" x="48.0" y="16.0" /><rect fill="rgb(255,175,124)" fill-opacity="1.0" height="8.8" width="8.8" x="48.0" y="24.0" /><rect fill="rgb(252,172,120)" fill-opacity="1.0" height="8.8" width="8.8" x="48.0" y="32.0" /><rect fill="rgb(250,169,117)" fill-opacity="1.0" height="8.8" width="8.8" x="48.0" y="40.0" /><rect fill="rgb(250,169,117)" fill-opacity="1.0" height="8.8" width="8.8" x="48.0" y="48.0" /><rect fill="rgb(192,127,87)" fill-opacity="1.0" height="8.8" width="8.8" x="48.0" y="56.0" /><rect fill="rgb(184,131,99)" fill-opacity="1.0" height="8.8" width="8.8" x="48.0" y="64.0" /><rect fill="rgb(172,165,161)" fill-opacity="1.0" height="8.8" width="8.8" x="48.0" y="72.0" /><rect fill="rgb(255,255,255)" fill-opacity="1.0" height="8.8" width="8.8" x="48.0" y="80.0" /><rect fill="rgb(255,255,255)" fill-opacity="1.0" height="8.8" width="8.8" x="48.0" y="88.0" /><rect fill="rgb(255,255,255)" fill-opacity="1.0" height="8.8" width="8.8" x="48.0" y="96.0" /><rect fill="rgb(117,117,117)" fill-opacity="1.0" height="8.8" width="8.8" x="48.0" y="104.0" /><rect fill="rgb(172,172,172)" fill-opacity="1.0" height="8.8" width="8.8" x="48.0" y="112.0" /><rect fill="rgb(255,255,255)" fill-opacity="1.0" height="8.8" width="8.8" x="48.0" y="120.0" /><rect fill="rgb(255,187,144)" fill-opacity="1.0" height="8.8" width="8.8" x="56.0" y="0.0" /><rect fill="rgb(255,175,124)" fill-opacity="1.0" height="8.8" width="8.8" x="56.0" y="8.0" /><rect fill="rgb(114,79,56)" fill-opacity="1.0" height="8.8" width="8.8" x="56.0" y="16.0" /><rect fill="rgb(189,127,88)" fill-opacity="1.0" height="8.8" width="8.8" x="56.0" y="24.0" /><rect fill="rgb(56,46,40)" fill-opacity="1.0" height="8.8" width="8.8" x="56.0" y="32.0" /><rect fill="rgb(110,95,86)" fill-opacity="1.0" height="8.8" width="8.8" x="56.0" y="40.0" /><rect fill="rgb(179,153,137)" fill-opacity="1.0" height="8.8" width="8.8" x="56.0" y="48.0" /><rect fill="rgb(254,227,210)" fill-opacity="1.0" height="8.8" width="8.8" x="56.0" y="56.0" /><rect fill="rgb(178,176,175)" fill-opacity="1.0" height="8.8" width="8.8" x="56.0" y="64.0" /><rect fill="rgb(217,217,217)" fill-opacity="1.0" height="8.8" width="8.8" x="56.0" y="72.0" /><rect fill="rgb(255,255,255)" fill-opacity="1.0" height="8.8" width="8.8" x="56.0" y="80.0" /><rect fill="rgb(255,255,255)" fill-opacity="1.0" height="8.8" width="8.8" x="56.0" y="88.0" /><rect fill="rgb(255,255,255)" fill-opacity="1.0" height="8.8" width="8.8" x="56.0" y="96.0" /><rect fill="rgb(255,255,255)" fill-opacity="1.0" height="8.8" width="8.8" x="56.0" y="104.0" /><rect fill="rgb(255,255,255)" fill-opacity="1.0" height="8.8" width="8.8" x="56.0" y="112.0" /><rect fill="rgb(255,248,245)" fill-opacity="1.0" height="8.8" width="8.8" x="56.0" y="120.0" /><rect fill="rgb(252,172,121)" fill-opacity="1.0" height="8.8" width="8.8" x="64.0" y="0.0" /><rect fill="rgb(255,175,124)" fill-opacity="1.0" height="8.8" width="8.8" x="64.0" y="8.0" /><rect fill="rgb(255,175,124)" fill-opacity="1.0" height="8.8" width="8.8" x="64.0" y="16.0" /><rect fill="rgb(255,175,124)" fill-opacity="1.0" height="8.8" width="8.8" x="64.0" y="24.0" /><rect fill="rgb(255,175,124)" fill-opacity="1.0" height="8.8" width="8.8" x="64.0" y="32.0" /><rect fill="rgb(155,126,107)" fill-opacity="1.0" height="8.8" width="8.8" x="64.0" y="40.0" /><rect fill="rgb(195,195,195)" fill-opacity="1.0" height="8.8" width="8.8" x="64.0" y="48.0" /><rect fill="rgb(118,118,118)" fill-opacity="1.0" height="8.8" width="8.8" x="64.0" y="56.0" /><rect fill="rgb(134,73,40)" fill-opacity="1.0" height="8.8" width="8.8" x="64.0" y="64.0" /><rect fill="rgb(255,143,83)" fill-opacity="1.0" height="8.8" width="8.8" x="64.0" y="72.0" /><rect fill="rgb(221,140,98)" fill-opacity="1.0" height="8.8" width="8.8" x="64.0" y="80.0" /><rect fill="rgb(125,101,89)" fill-opacity="1.0" height="8.8" width="8.8" x="64.0" y="88.0" /><rect fill="rgb(255,255,255)" fill-opacity="1.0" height="8.8" width="8.8" x="64.0" y="96.0" /><rect fill="rgb(255,255,255)" fill-opacity="1.0" height="8.8" width="8.8" x="64.0" y="104.0" /><rect fill="rgb(255,255,255)" fill-opacity="1.0" height="8.8" width="8.8" x="64.0" y="112.0" /><rect fill="rgb(255,240,232)" fill-opacity="1.0" height="8.8" width="8.8" x="64.0" y="120.0" /><rect fill="rgb(177,123,89)" fill-opacity="1.0" height="8.8" width="8.8" x="72.0" y="0.0" /><rect fill="rgb(191,129,89)" fill-opacity="1.0" height="8.8" width="8.8" x="72.0" y="8.0" /><rect fill="rgb(252,172,121)" fill-opacity="1.0" height="8.8" width="8.8" x="72.0" y="16.0" /><rect fill="rgb(255,175,124)" fill-opacity="1.0" height="8.8" width="8.8" x="72.0" y="24.0" /><rect fill="rgb(255,175,124)" fill-opacity="1.0" height="8.8" width="8.8" x="72.0" y="32.0" /><rect fill="rgb(243,170,124)" fill-opacity="1.0" height="8.8" width="8.8" x="72.0" y="40.0" /><rect fill="rgb(189,130,92)" fill-opacity="1.0" height="8.8" width="8.8" x="72.0" y="48.0" /><rect fill="rgb(129,129,129)" fill-opacity="1.0" height="8.8" width="8.8" x="72.0" y="56.0" /><rect fill="rgb(134,73,40)" fill-opacity="1.0" height="8.8" width="8.8" x="72.0" y="64.0" /><rect fill="rgb(255,143,83)" fill-opacity="1.0" height="8.8" width="8.8" x="72.0" y="72.0" /><rect fill="rgb(254,162,113)" fill-opacity="1.0" height="8.8" width="8.8" x="72.0" y="80.0" /><rect fill="rgb(254,162,113)" fill-opacity="1.0" height="8.8" width="8.8" x="72.0" y="88.0" /><rect fill="rgb(235,235,235)" fill-opacity="1.0" height="8.8" width="8.8" x="72.0" y="96.0" /><rect fill="rgb(255,255,255)" fill-opacity="1.0" height="8.8" width="8.8" x="72.0" y="104.0" /><rect fill="rgb(255,255,255)" fill-opacity="1.0" height="8.8" width="8.8" x="72.0" y="112.0" /><rect fill="rgb(211,180,163)" fill-opacity="1.0" height="8.8" width="8.8" x="72.0" y="120.0" /><rect fill="rgb(255,186,141)" fill-opacity="1.0" height="8.8" width="8.8" x="80.0" y="0.0" /><rect fill="rgb(255,175,124)" fill-opacity="1.0" height="8.8" width="8.8" x="80.0" y="8.0" /><rect fill="rgb(177,120,84)" fill-opacity="1.0" height="8.8" width="8.8" x="80.0" y="16.0" /><rect fill="rgb(140,92,63)" fill-opacity="1.0" height="8.8" width="8.8" x="80.0" y="24.0" /><rect fill="rgb(250,169,118)" fill-opacity="1.0" height="8.8" width="8.8" x="80.0" y="32.0" /><rect fill="rgb(253,172,121)" fill-opacity="1.0" height="8.8" width="8.8" x="80.0" y="40.0" /><rect fill="rgb(255,175,124)" fill-opacity="1.0" height="8.8" width="8.8" x="80.0" y="48.0" /><rect fill="rgb(189,130,92)" fill-opacity="1.0" height="8.8" width="8.8" x="80.0" y="56.0" /><rect fill="rgb(76,42,23)" fill-opacity="1.0" height="8.8" width="8.8" x="80.0" y="64.0" /><rect fill="rgb(149,85,50)" fill-opacity="1.0" height="8.8" width="8.8" x="80.0" y="72.0" /><rect fill="rgb(253,201,173)" fill-opacity="1.0" height="8.8" width="8.8" x="80.0" y="80.0" /><rect fill="rgb(109,107,106)" fill-opacity="1.0" height="8.8" width="8.8" x="80.0" y="88.0" /><rect fill="rgb(255,255,255)" fill-opacity="1.0" height="8.8" width="8.8" x="80.0" y="96.0" /><rect fill="rgb(255,255,255)" fill-opacity="1.0" height="8.8" width="8.8" x="80.0" y="104.0" /><rect fill="rgb(255,240,232)" fill-opacity="1.0" height="8.8" width="8.8" x="80.0" y="112.0" /><rect fill="rgb(152,140,132)" fill-opacity="1.0" height="8.8" width="8.8" x="80.0" y="120.0" /><rect fill="rgb(255,175,124)" fill-opacity="1.0" height="8.8" width="8.8" x="88.0" y="0.0" /><rect fill="rgb(255,175,124)" fill-opacity="1.0" height="8.8" width="8.8" x="88.0" y="8.0" /><rect fill="rgb(255,175,124)" fill-opacity="1.0" height="8.8" width="8.8" x="88.0" y="16.0" /><rect fill="rgb(255,175,124)" fill-opacity="1.0" height="8.8" width="8.8" x="88.0" y="24.0" /><rect fill="rgb(186,128,90)" fill-opacity="1.0" height="8.8" width="8.8" x="88.0" y="32.0" /><rect fill="rgb(173,117,82)" fill-opacity="1.0" height="8.8" width="8.8" x="88.0" y="40.0" /><rect fill="rgb(158,103,69)" fill-opacity="1.0" height="8.8" width="8.8" x="88.0" y="48.0" /><rect fill="rgb(184,127,90)" fill-opacity="1.0" height="8.8" width="8.8" x="88.0" y="56.0" /><rect fill="rgb(54,35,24)" fill-opacity="1.0" height="8.8" width="8.8" x="88.0" y="64.0" /><rect fill="rgb(150,116,95)" fill-opacity="1.0" height="8.8" width="8.8" x="88.0" y="72.0" /><rect fill="rgb(250,216,195)" fill-opacity="1.0" height="8.8" width="8.8" x="88.0" y="80.0" /><rect fill="rgb(142,108,86)" fill-opacity="1.0" height="8.8" width="8.8" x="88.0" y="88.0" /><rect fill="rgb(45,45,45)" fill-opacity="1.0" height="8.8" width="8.8" x="88.0" y="96.0" /><rect fill="rgb(168,168,168)" fill-opacity="1.0" height="8.8" width="8.8" x="88.0" y="104.0" /><rect fill="rgb(129,104,89)" fill-opacity="1.0" height="8.8" width="8.8" x="88.0" y="112.0" /><rect fill="rgb(37,37,37)" fill-opacity="1.0" height="8.8" width="8.8" x="88.0" y="120.0" /><rect fill="rgb(253,172,121)" fill-opacity="1.0" height="8.8" width="8.8" x="96.0" y="0.0" /><rect fill="rgb(255,175,124)" fill-opacity="1.0" height="8.8" width="8.8" x="96.0" y="8.0" /><rect fill="rgb(255,175,124)" fill-opacity="1.0" height="8.8" width="8.8" x="96.0" y="16.0" /><rect fill="rgb(255,175,124)" fill-opacity="1.0" height="8.8" width="8.8" x="96.0" y="24.0" /><rect fill="rgb(255,175,124)" fill-opacity="1.0" height="8.8" width="8.8" x="96.0" y="32.0" /><rect fill="rgb(255,175,124)" fill-opacity="1.0" height="8.8" width="8.8" x="96.0" y="40.0" /><rect fill="rgb(255,175,124)" fill-opacity="1.0" height="8.8" width="8.8" x="96.0" y="48.0" /><rect fill="rgb(255,175,124)" fill-opacity="1.0" height="8.8" width="8.8" x="96.0" y="56.0" /><rect fill="rgb(254,175,125)" fill-opacity="1.0" height="8.8" width="8.8" x="96.0" y="64.0" /><rect fill="rgb(117,78,53)" fill-opacity="1.0" height="8.8" width="8.8" x="96.0" y="72.0" /><rect fill="rgb(106,73,52)" fill-opacity="1.0" height="8.8" width="8.8" x="96.0" y="80.0" /><rect fill="rgb(106,73,52)" fill-opacity="1.0" height="8.8" width="8.8" x="96.0" y="88.0" /><rect fill="rgb(106,73,52)" fill-opacity="1.0" height="8.8" width="8.8" x="96.0" y="96.0" /><rect fill="rgb(182,125,88)" fill-opacity="1.0" height="8.8" width="8.8" x="96.0" y="104.0" /><rect fill="rgb(255,175,124)" fill-opacity="1.0" height="8.8" width="8.8" x="96.0" y="112.0" /><rect fill="rgb(255,175,124)" fill-opacity="1.0" height="8.8" width="8.8" x="96.0" y="120.0" /><rect fill="rgb(144,95,64)" fill-opacity="1.0" height="8.8" width="8.8" x="104.0" y="0.0" /><rect fill="rgb(250,168,116)" fill-opacity="1.0" height="8.8" width="8.8" x="104.0" y="8.0" /><rect fill="rgb(255,175,124)" fill-opacity="1.0" height="8.8" width="8.8" x="104.0" y="16.0" /><rect fill="rgb(255,175,124)" fill-opacity="1.0" height="8.8" width="8.8" x="104.0" y="24.0" /><rect fill="rgb(214,145,102)" fill-opacity="1.0" height="8.8" width="8.8" x="104.0" y="32.0" /><rect fill="rgb(255,175,124)" fill-opacity="1.0" height="8.8" width="8.8" x="104.0" y="40.0" /><rect fill="rgb(255,175,124)" fill-opacity="1.0" height="8.8" width="8.8" x="104.0" y="48.0" /><rect fill="rgb(255,175,124)" fill-opacity="1.0" height="8.8" width="8.8" x="104.0" y="56.0" /><rect fill="rgb(255,175,124)" fill-opacity="1.0" height="8.8" width="8.8" x="104.0" y="64.0" /><rect fill="rgb(255,175,124)" fill-opacity="1.0" height="8.8" width="8.8" x="104.0" y="72.0" /><rect fill="rgb(255,175,124)" fill-opacity="1.0" height="8.8" width="8.8" x="104.0" y="80.0" /><rect fill="rgb(255,175,124)" fill-opacity="1.0" height="8.8" width="8.8" x="104.0" y="88.0" /><rect fill="rgb(255,175,124)" fill-opacity="1.0" height="8.8" width="8.8" x="104.0" y="96.0" /><rect fill="rgb(255,175,124)" fill-opacity="1.0" height="8.8" width="8.8" x="104.0" y="104.0" /><rect fill="rgb(255,175,124)" fill-opacity="1.0" height="8.8" width="8.8" x="104.0" y="112.0" /><rect fill="rgb(214,146,103)" fill-opacity="1.0" height="8.8" width="8.8" x="104.0" y="120.0" /><rect fill="rgb(25,25,25)" fill-opacity="1.0" height="8.8" width="8.8" x="112.0" y="0.0" /><rect fill="rgb(13,13,13)" fill-opacity="1.0" height="8.8" width="8.8" x="112.0" y="8.0" /><rect fill="rgb(103,103,103)" fill-opacity="1.0" height="8.8" width="8.8" x="112.0" y="16.0" /><rect fill="rgb(175,175,175)" fill-opacity="1.0" height="8.8" width="8.8" x="112.0" y="24.0" /><rect fill="rgb(184,184,184)" fill-opacity="1.0" height="8.8" width="8.8" x="112.0" y="32.0" /><rect fill="rgb(251,169,118)" fill-opacity="1.0" height="8.8" width="8.8" x="112.0" y="40.0" /><rect fill="rgb(251,169,118)" fill-opacity="1.0" height="8.8" width="8.8" x="112.0" y="48.0" /><rect fill="rgb(251,169,118)" fill-opacity="1.0" height="8.8" width="8.8" x="112.0" y="56.0" /><rect fill="rgb(251,169,118)" fill-opacity="1.0" height="8.8" width="8.8" x="112.0" y="64.0" /><rect fill="rgb(251,169,118)" fill-opacity="1.0" height="8.8" width="8.8" x="112.0" y="72.0" /><rect fill="rgb(251,169,118)" fill-opacity="1.0" height="8.8" width="8.8" x="112.0" y="80.0" /><rect fill="rgb(251,169,118)" fill-opacity="1.0" height="8.8" width="8.8" x="112.0" y="88.0" /><rect fill="rgb(251,169,118)" fill-opacity="1.0" height="8.8" width="8.8" x="112.0" y="96.0" /><rect fill="rgb(254,174,123)" fill-opacity="1.0" height="8.8" width="8.8" x="112.0" y="104.0" /><rect fill="rgb(255,175,124)" fill-opacity="1.0" height="8.8" width="8.8" x="112.0" y="112.0" /><rect fill="rgb(255,175,124)" fill-opacity="1.0" height="8.8" width="8.8" x="112.0" y="120.0" /><rect fill="rgb(53,53,53)" fill-opacity="1.0" height="8.8" width="8.8" x="120.0" y="0.0" /><rect fill="rgb(154,154,154)" fill-opacity="1.0" height="8.8" width="8.8" x="120.0" y="8.0" /><rect fill="rgb(0,0,0)" fill-opacity="1.0" height="8.8" width="8.8" x="120.0" y="16.0" /><rect fill="rgb(22,22,22)" fill-opacity="1.0" height="8.8" width="8.8" x="120.0" y="24.0" /><rect fill="rgb(116,116,116)" fill-opacity="1.0" height="8.8" width="8.8" x="120.0" y="32.0" /><rect fill="rgb(66,66,66)" fill-opacity="1.0" height="8.8" width="8.8" x="120.0" y="40.0" /><rect fill="rgb(9,9,9)" fill-opacity="1.0" height="8.8" width="8.8" x="120.0" y="48.0" /><rect fill="rgb(0,0,0)" fill-opacity="1.0" height="8.8" width="8.8" x="120.0" y="56.0" /><rect fill="rgb(7,7,7)" fill-opacity="1.0" height="8.8" width="8.8" x="120.0" y="64.0" /><rect fill="rgb(15,15,15)" fill-opacity="1.0" height="8.8" width="8.8" x="120.0" y="72.0" /><rect fill="rgb(58,40,28)" fill-opacity="1.0" height="8.8" width="8.8" x="120.0" y="80.0" /><rect fill="rgb(16,16,16)" fill-opacity="1.0" height="8.8" width="8.8" x="120.0" y="88.0" /><rect fill="rgb(16,16,16)" fill-opacity="1.0" height="8.8" width="8.8" x="120.0" y="96.0" /><rect fill="rgb(10,10,10)" fill-opacity="1.0" height="8.8" width="8.8" x="120.0" y="104.0" /><rect fill="rgb(207,138,96)" fill-opacity="1.0" height="8.8" width="8.8" x="120.0" y="112.0" /><rect fill="rgb(188,137,106)" fill-opacity="1.0" height="8.8" width="8.8" x="120.0" y="120.0" /></svg>