<?xml version="1.0" encoding="UTF-8"?>
<!-- Copyright (c) 2026 Umamichi/Unnamed2964. Licensed under CC BY-SA 4.0. -->
<svg width="100" height="100" viewBox="0 0 100 100" xmlns="http://www.w3.org/2000/svg">
  <path fill="#000" d="m 50,0 c -3.837657,0 -6.94836,2.912901 -6.94836,6.504782 v 12.756779 0.715023 15.364981 L 0.4927995,58.654092 V 68.60336 L 43.05164,56.257955 V 79.22866 c 0,1.78183 0.392126,3.44406 1.0704,4.84656 l -1.0704,0.6777 -13.02822,8.24357 V 100 l 13.02822,-3.77954 6.948359,-2.01529 6.948359,2.01529 L 69.976579,100 v -7.00351 l -13.028221,-8.24357 -1.0704,-0.6777 c 0.678274,-1.4025 1.0704,-3.06473 1.0704,-4.84656 V 56.257955 L 99.5072,68.60336 V 58.654092 L 56.948358,35.341565 V 19.976584 19.261561 6.504782 C 56.948358,2.912901 53.837656,0 50,0 Z" />
</svg>
