<?xml version="1.0" encoding="UTF-8"?>
<!-- Copyright (c) 2026 Umamichi/Unnamed2964. Licensed under CC BY-SA 4.0. -->
<svg width="100" height="100" viewBox="0 0 100 100" xmlns="http://www.w3.org/2000/svg">
  <path fill="#000" d="m 50,0.01515834 c -10.036384,-0.0608503 -16.664392,0.0623623 -18.168039,0.3401575 -1.502664,0.2785512 -3.31045,1.01597476 -4.558488,1.86379846 -1.133745,0.7715905 -2.563578,2.1503244 -3.170721,3.0623618 -0.603931,0.913096 -1.458142,3.153071 -1.897776,4.9792629 -0.439597,1.825097 -1.498394,6.534388 -2.352567,10.464303 l -1.55777,7.146932 v 18.49319 c 0.0038,17.735094 0.03402,18.595276 0.911697,20.928605 0.501657,1.3375 1.491137,3.094262 2.201688,3.901796 0.707226,0.807534 2.3424,2.073751 3.636133,2.81159 1.289386,0.738974 2.345234,1.475301 2.341946,1.636385 v 0.0022 0.0021 0.0022 0.0021 L 24.568163,79.239348 8.2617695,100.00007 H 20.05004 l 2.862614,-4.566995 H 50 77.087382 l 2.862577,4.566995 H 91.73823 L 75.431873,79.239348 72.613895,75.652043 v -0.0021 -0.0022 -0.0021 -0.0022 c -0.0033,-0.161008 1.052524,-0.897411 2.341909,-1.636385 1.293733,-0.737839 2.928984,-2.004056 3.636171,-2.81159 0.710551,-0.807534 1.700031,-2.564296 2.201651,-3.901796 0.878778,-2.333329 0.907578,-3.193511 0.911696,-20.928605 V 27.871974 L 80.14759,20.725042 C 79.293455,16.795127 78.23462,12.085836 77.795023,10.260739 77.355426,8.4345471 76.501177,6.1945721 75.897247,5.2814761 75.290103,4.3694387 73.86027,2.9907048 72.726525,2.2191143 71.478488,1.3712906 69.670703,0.63394264 68.168037,0.35531584 66.664428,0.07789854 60.036383,-0.04557866 50,0.01515834 Z m 0,2.88812606 c 1.92204,0.00113 3.478903,1.5839244 3.478903,3.5362397 0,1.952315 -1.556863,3.535143 -3.478903,3.536277 -1.922042,-0.0011 -3.478904,-1.583962 -3.478904,-3.536277 0,-1.9523153 1.556862,-3.5351059 3.478904,-3.5362397 z M 30.669492,12.32198 H 46.249083 47.21392 V 31.023457 H 32.535407 c -0.60824,-0.0076 -1.114092,-0.0189 -1.817008,-0.0189 -4.414337,-0.0076 -6.171855,-0.130016 -6.792037,-0.750199 -0.570142,-0.570255 -0.796158,-1.21988 -0.648189,-1.846753 0.122834,-0.532195 0.873864,-3.951568 1.670362,-7.599605 0.79646,-3.648 1.742778,-6.736782 2.099679,-7.095912 0.356787,-0.359055 1.220409,-1.019226 2.148548,-1.234734 0.233952,-0.05443 0.868837,-0.107339 1.47273,-0.154961 z m 22.116625,0 h 0.9648 15.579589 c 0.603932,0.048 1.238703,0.100914 1.472732,0.154961 0.928139,0.215433 1.791572,0.875603 2.148547,1.234734 0.356789,0.359055 1.303219,3.447912 2.09968,7.095912 0.796498,3.648038 1.547376,7.06741 1.670362,7.599606 0.148157,0.626872 -0.07824,1.276497 -0.648189,1.846752 -0.620182,0.620334 -2.377701,0.741544 -6.792039,0.750199 -0.702916,0 -1.208767,0.01134 -1.81697,0.0189 H 52.786116 Z M 30.786355,41.458015 c 3.245027,0 5.87399,2.65406 5.87399,5.929209 0,3.275112 -2.628963,5.92921 -5.87399,5.92921 -3.244951,0 -5.876031,-2.654098 -5.876031,-5.92921 0,-3.275149 2.63108,-5.929209 5.876031,-5.929209 z m 38.427251,0 c 3.244951,0 5.876108,2.65406 5.876108,5.929209 0,3.275112 -2.631157,5.92921 -5.876108,5.92921 -3.245026,0 -5.873953,-2.654098 -5.873953,-5.92921 0,-3.275149 2.628927,-5.929209 5.873953,-5.929209 z M 35.315136,75.65193 H 50 64.6849 l 2.250521,3.587267 H 50 33.064541 Z m -5.383067,8.585654 H 50 70.067931 l 2.862575,4.564876 H 50 27.069454 Z" />
</svg>
